<?xml version="1.0" encoding="utf-8"?>
<!-- Generator: Adobe Illustrator 23.0.4, SVG Export Plug-In . SVG Version: 6.00 Build 0)  -->
<svg version="1.1" id="Layer_1" xmlns="http://www.w3.org/2000/svg" xmlns:xlink="http://www.w3.org/1999/xlink" x="0px" y="0px"
	 viewBox="0 0 160 160" style="enable-background:new 0 0 160 160;" xml:space="preserve">
<style type="text/css">
	.st0{fill:#3185DA;}
	.st1{fill:#FEFEFE;}
	.st2{fill:#5A94CF;}
	.st3{fill:#FDFDFD;}
	.st4{fill:#FCFDFD;}
	.st5{fill:#005197;}
	.st6{fill:#004D96;}
	.st7{fill:#004B95;}
	.st8{fill:#004A94;}
	.st9{fill:#004A95;}
	.st10{fill:#004994;}
	.st11{fill:#004794;}
	.st12{fill:#004894;}
	.st13{fill:#FFFFFF;}
</style>
<circle class="st0" cx="80.5" cy="79.5" r="21"/>
<path class="st0" d="M86.5,11.5c0,0-4-5-14,0s-48,28-48,28s-8,5-7,12s0,61,0,61s1,5,8,9s48,28,48,28s8,4,13,0s50-29,50-29s5-3,7-7
	S142,46.87,142,46.87s-0.5-5.37-4.5-6.37S86.5,11.5,86.5,11.5z"/>
<path class="st1" d="M87.57,38.88c9.16,2.14,17.38,6.01,23.83,13.08c2.14,2.34,4.24,4.71,5.52,7.67c0,1.15-0.79,1.8-1.62,2.32
	c-4.6,2.9-9.37,5.5-14.11,8.16c-0.61,0.34-1.3,0.48-2.01,0.42c-2.02-0.37-3.16-2.03-4.4-3.34c-3.42-3.61-7.53-5.66-12.41-6.26
	c-1.27-0.38-2.54-0.37-3.82,0.01c-9.53,1.29-15.92,7.55-17.54,17.21c-0.45,1.62-0.57,3.24-0.06,4.87c0.16,2.49,1.17,4.73,2.1,6.99
	c3.49,5.38,8.07,9.19,14.63,10.12c1.93,0.52,3.85,0.54,5.77-0.02c4.49-0.62,8.2-2.67,11.31-5.95c1.14-1.21,2.05-2.7,3.66-3.4
	c1.35-0.37,2.55,0.12,3.66,0.78c4.22,2.55,8.58,4.86,12.79,7.44c1.2,0.73,2.36,1.47,2.63,3.01c-0.66,3.98-3.52,6.61-6.11,9.23
	c-5.75,5.83-12.86,9.48-20.68,11.77c-2.3,0.67-4.73,0.32-7.06,0.78c-2.1,0.05-4.21,0.06-6.31-0.01c-6.56-0.3-12.61-2.33-18.36-5.4
	c-5.89-3.15-15.72-15.09-14.88-16.36c-4.62-8.38-6.62-17.3-5.45-26.86c-0.17-0.76-0.48-1.54,0.22-2.21
	C41,64.15,44.9,56.4,51.53,50.09c6.24-5.94,13.74-9.28,21.99-11.21C74.21,38.2,86.88,38.2,87.57,38.88z"/>
<path class="st2" d="M38.88,72.93c-0.07,0.74-0.14,1.48-0.22,2.21C38.29,74.36,37.58,73.54,38.88,72.93z"/>
<path class="st2" d="M87.57,38.88c-0.74-0.06-1.48-0.12-2.22-0.19C86.13,38.28,86.93,37.58,87.57,38.88z"/>
<path class="st2" d="M75.74,38.69c-0.74,0.06-1.48,0.13-2.22,0.19C74.16,37.6,74.96,38.27,75.74,38.69z"/>
<path class="st3" d="M113.26,77.56c0.05-1.34,0.1-2.68,0.15-4.01c1.57-0.72,3.14-0.78,4.7,0.02l0.01-0.16l-0.16,0
	c1.38,1.22-0.53,3.28,1.14,4.43c1.25,0.3,2.64-0.5,3.8,0.51l-0.01-0.16l-0.16,0.01c0.82,1.56,0.7,3.13,0.03,4.71
	c-1.34,0.05-2.69,0.09-4.03,0.14c-0.86,1.46,0.33,3.24-0.72,4.67l0.12-0.12c-1.57,0.72-3.16,0.61-4.75,0.06
	c-0.05-4.67-0.05-4.67-4.71-4.73c-0.59-1.59-0.68-3.17,0.05-4.75l-0.13,0.13C110.02,77.22,111.8,78.42,113.26,77.56z"/>
<path class="st4" d="M130.07,83.03c-1.29-0.05-2.59-0.1-3.88-0.15c-1.02-1.57-0.84-3.12,0.04-4.67c1.21-1,3.01,0.49,4.11-0.98
	c0.27-1.39-0.61-3.09,1.1-4.09c1.33,0.08,2.71-0.42,3.98,0.31c0.51,1.48-0.36,3.15,0.63,4.57c1.39-0.12,2.79-0.5,4.14,0.21
	c0.02,0.69-0.04,1.4,0.06,2.08c0.3,1.99-0.31,3.02-2.5,2.63c-1.64-0.29-2.38,0.36-2.2,2.1c0.09,0.87-0.07,1.78-0.12,2.66
	c-1.39,0.5-2.78,0.4-4.18,0.06l-0.19-0.13l-0.22,0.02C129.63,86.28,130.95,84.47,130.07,83.03z"/>
<path class="st5" d="M126.48,78.14c-0.68,1.54-0.26,3.15-0.29,4.74c-1.34-1.85-1.48-3.64,0.3-5.31
	C126.89,77.76,126.88,77.96,126.48,78.14z"/>
<path class="st6" d="M131.27,73.41c-0.97,1.27-0.15,2.81-0.62,4.15c-0.2,0.25-0.39,0.24-0.59,0c0.23-1.63-0.68-3.55,1.2-4.77
	C131.66,72.99,131.66,73.2,131.27,73.41z"/>
<path class="st6" d="M118.11,73.57c-1.57-0.01-3.13-0.01-4.7-0.02C114.98,72.42,116.55,72.41,118.11,73.57z"/>
<path class="st7" d="M118.73,78.09c-1.45-1.36-0.17-3.18-0.77-4.68c1.29,1.19,0.58,2.75,0.77,4.15
	C119.14,77.74,119.14,77.91,118.73,78.09z"/>
<path class="st8" d="M113.26,77.56c-1.38,1.37-3.16,0.21-4.67,0.73C109.99,77,111.7,77.78,113.26,77.56z"/>
<path class="st9" d="M108.72,78.16c-0.02,1.58-0.03,3.16-0.05,4.75C107.67,81.31,107.63,79.73,108.72,78.16z"/>
<path class="st6" d="M122.76,82.89c-0.01-1.57-0.02-3.14-0.03-4.7C123.89,79.74,123.86,81.31,122.76,82.89z"/>
<path class="st10" d="M118.01,87.7c0.51-1.52-0.65-3.29,0.72-4.67C118.51,84.59,119.29,86.31,118.01,87.7z"/>
<path class="st6" d="M130.07,83.03c1.63,1.31,0.25,3.13,0.78,4.62C129.45,86.31,130.31,84.58,130.07,83.03z"/>
<path class="st11" d="M113.38,87.64c1.58-0.02,3.16-0.04,4.75-0.06C116.56,88.66,114.98,88.62,113.38,87.64z"/>
<path class="st6" d="M131.27,73.41c0-0.2-0.01-0.41-0.01-0.61c1.4,0.16,2.92-0.46,4.16,0.66C134.04,73.44,132.65,73.42,131.27,73.41
	z"/>
<path class="st7" d="M118.73,78.09c0-0.18,0-0.35,0-0.53c1.4,0.2,2.97-0.52,4.17,0.78C121.51,78.25,120.12,78.17,118.73,78.09z"/>
<path class="st7" d="M130.06,77.56c0.2,0,0.39,0,0.59,0c-1.24,1.28-2.78,0.39-4.17,0.58c0-0.19,0.01-0.38,0.01-0.58
	C127.68,77.56,128.87,77.56,130.06,77.56z"/>
<path class="st10" d="M140.19,78.23c-1.38-0.07-2.76-0.14-4.14-0.21C137.46,77.4,138.86,77.2,140.19,78.23z"/>
<path class="st12" d="M131.26,87.76c1.39-0.02,2.78-0.04,4.18-0.06C134.06,88.6,132.66,88.54,131.26,87.76z"/>
<g>
	<polygon class="st0" points="141.5,113 79.5,78 141.5,43 	"/>
</g>
<g>
	<path class="st13" d="M109.89,79.37h13.57v3.02h-13.57V79.37z M115.48,68.52h2.69l-4.58,18.74h-2.79L115.48,68.52z M111.3,72.99
		h13.45l-0.02,3.02H111.3V72.99z M121.19,68.52h2.71l-4.58,18.74h-2.77L121.19,68.52z"/>
</g>
</svg>
