<?xml version="1.0" encoding="utf-8"?>
<!-- Generator: Adobe Illustrator 23.0.4, SVG Export Plug-In . SVG Version: 6.00 Build 0)  -->
<svg version="1.1" id="Layer_1" xmlns="http://www.w3.org/2000/svg" xmlns:xlink="http://www.w3.org/1999/xlink" x="0px" y="0px"
	 viewBox="0 0 160 160" style="enable-background:new 0 0 160 160;" xml:space="preserve">
<style type="text/css">
	.st0{fill:#3185DA;}
	.st1{fill:#3185DA;stroke:#FFFFFF;stroke-width:2;stroke-miterlimit:10;}
</style>
<path class="st0" d="M152,127.16h-26.87l-92.12-93.4c0,0,83.81-0.64,85.73,1.92C120.65,38.24,152,68.3,152,68.3V127.16z"/>
<path class="st0" d="M8.7,88.13c0,0-6.4,4.48,24.95,30.07c3.2-12.15,0-84.45,0-84.45L8.7,88.13z"/>
<path class="st1" d="M33.33,34.08l92.12,92.76v24.95H67.88c0,0-31.35-30.71-34.55-33.91C32.69,107.64,33.33,34.08,33.33,34.08z"/>
<path class="st1" d="M119.05,36c0,0-2.24-0.96-5.12-1.28c-2.24,0.32-80.61-0.64-80.61-0.64l53.1-24.95
	C86.43,9.13,92.18,5.29,119.05,36z"/>
</svg>
